<?xml version="1.0" encoding="UTF-8" standalone="no"?>
<svg width="40px" height="15px" viewBox="0 0 40 15" version="1.1" xmlns="http://www.w3.org/2000/svg" xmlns:xlink="http://www.w3.org/1999/xlink">
    <!-- Generator: Sketch 3.8.3 (29802) - http://www.bohemiancoding.com/sketch -->
    <title>em-logo-beta</title>
    <desc>Created with Sketch.</desc>
    <defs>
        <linearGradient x1="101.999998%" y1="100.999999%" x2="-1.33978948%" y2="-1.69979893%" id="linearGradient-1">
            <stop stop-color="#843AB1" offset="0%"></stop>
            <stop stop-color="#6994FF" offset="100%"></stop>
        </linearGradient>
    </defs>
    <g id="startHere" stroke="none" stroke-width="1" fill="none" fill-rule="evenodd">
        <g id="000_登录后首页-新导航-未登录" transform="translate(-341.000000, -50.000000)" fill="url(#linearGradient-1)">
            <g id="Group-12" transform="translate(342.000000, 52.000000)">
                <path d="M1.296,0.448 L0.708,1.012 C1.44,1.576 2.016,2.116 2.424,2.62 L2.988,2.044 C2.532,1.516 1.968,0.976 1.296,0.448 L1.296,0.448 Z M1.104,3.4 L0.516,3.952 C1.224,4.564 1.776,5.14 2.184,5.68 L2.748,5.116 C2.304,4.54 1.752,3.976 1.104,3.4 L1.104,3.4 Z M2.16,6.628 C1.704,8.02 1.176,9.388 0.576,10.72 L1.368,11.056 C1.92,9.76 2.436,8.38 2.892,6.916 L2.16,6.628 Z M7.488,0.784 L3.468,0.784 L3.468,8.176 L4.236,8.176 L4.236,1.528 L6.72,1.528 L6.72,8.104 L7.488,8.104 L7.488,0.784 Z M6.204,8.668 L5.676,9.172 C6.444,9.892 7.032,10.564 7.464,11.2 L8.04,10.624 C7.548,9.976 6.936,9.316 6.204,8.668 L6.204,8.668 Z M5.124,2.356 L5.124,6.16 C5.1,7.276 4.92,8.176 4.608,8.872 C4.272,9.544 3.672,10.084 2.808,10.492 L3.264,11.212 C4.152,10.78 4.8,10.18 5.196,9.436 C5.604,8.62 5.82,7.528 5.844,6.16 L5.844,2.356 L5.124,2.356 Z M10.08,11.104 C10.704,11.104 11.028,10.756 11.028,10.084 L11.028,0.268 L10.212,0.268 L10.212,9.88 C10.212,10.192 10.068,10.36 9.792,10.36 C9.408,10.36 9,10.336 8.58,10.3 L8.76,11.104 L10.08,11.104 Z M8.436,1.252 L8.436,8.74 L9.192,8.74 L9.192,1.252 L8.436,1.252 Z M17.64,5.884 L17.64,9.304 C17.256,9.376 16.86,9.436 16.464,9.484 L16.68,10.3 C17.88,10.096 19.008,9.844 20.052,9.544 L20.052,8.74 C19.548,8.884 19.02,9.016 18.492,9.136 L18.492,5.884 L19.62,5.884 L19.62,5.08 L16.512,5.08 L16.512,5.884 L17.64,5.884 Z M22.188,11.02 C22.74,11.02 23.208,10.156 23.604,8.428 L22.92,7.876 C22.68,9.304 22.428,10.036 22.188,10.084 C21.828,10.036 21.516,9.34 21.252,7.972 C21.06,6.844 20.928,5.26 20.868,3.196 L23.244,3.196 L23.244,2.356 L20.856,2.356 C20.832,1.672 20.832,0.94 20.832,0.16 L19.992,0.16 C19.992,0.928 19.992,1.66 20.016,2.356 L16.236,2.356 L16.236,3.196 L20.04,3.196 C20.088,4.768 20.172,6.088 20.304,7.144 C20.472,8.392 20.736,9.364 21.096,10.084 C21.408,10.708 21.78,11.02 22.188,11.02 L22.188,11.02 Z M21.864,0.148 L21.252,0.52 C21.756,1.096 22.164,1.612 22.464,2.08 L23.064,1.66 C22.776,1.228 22.38,0.724 21.864,0.148 L21.864,0.148 Z M13.944,0.316 L13.344,0.904 C14.16,1.552 14.808,2.176 15.288,2.764 L15.876,2.164 C15.348,1.54 14.712,0.928 13.944,0.316 L13.944,0.316 Z M12.504,3.868 L12.504,4.696 L14.184,4.696 L14.184,9.508 C14.184,9.688 14.088,9.856 13.92,10 L14.256,10.768 C15,10.216 15.696,9.58 16.356,8.86 L16.128,7.948 C15.744,8.368 15.384,8.752 15.024,9.1 L15.024,3.868 L12.504,3.868 Z M27.48,0.328 L27.48,3.508 L26.196,3.508 L26.196,0.568 L25.344,0.568 L25.344,4.972 C25.332,7.468 25.044,9.292 24.492,10.432 L25.14,11.008 C25.656,10.048 25.98,8.68 26.124,6.88 L27.624,6.88 L27.624,11.152 L28.476,11.152 L28.476,6.052 L26.172,6.052 C26.184,5.704 26.196,5.344 26.196,4.972 L26.196,4.36 L29.028,4.36 L29.028,3.508 L28.32,3.508 L28.32,0.328 L27.48,0.328 Z M30.504,4.492 L30.9,4.492 C31.176,6.1 31.656,7.468 32.34,8.584 C31.716,9.328 30.96,9.952 30.06,10.444 L30.48,11.212 C31.392,10.72 32.184,10.084 32.844,9.316 C33.444,10.108 34.2,10.732 35.1,11.2 L35.532,10.444 C34.68,10.012 33.96,9.412 33.372,8.62 C34.14,7.48 34.668,6.076 34.944,4.408 L34.944,3.676 L30.504,3.676 L30.504,1.792 C32.244,1.72 33.828,1.48 35.244,1.072 L34.812,0.292 C33.3,0.772 31.596,1.024 29.712,1.048 L29.712,5.812 C29.664,7.804 29.34,9.376 28.74,10.504 L29.34,11.14 C30.06,9.82 30.456,8.044 30.504,5.812 L30.504,4.492 Z M31.68,4.492 L34.104,4.492 C33.888,5.764 33.468,6.892 32.868,7.852 C32.34,6.916 31.944,5.8 31.68,4.492 L31.68,4.492 Z" id="测试版"></path>
            </g>
        </g>
    </g>
</svg>