<?xml version="1.0" encoding="UTF-8" standalone="no"?>
<svg width="540px" height="54px" viewBox="0 0 540 54" version="1.1" xmlns="http://www.w3.org/2000/svg" xmlns:xlink="http://www.w3.org/1999/xlink" xmlns:sketch="http://www.bohemiancoding.com/sketch/ns">
    <!-- Generator: Sketch 3.4 (15575) - http://www.bohemiancoding.com/sketch -->
    <title>head_title</title>
    <desc>Created with Sketch.</desc>
    <defs></defs>
    <g id="未登录" stroke="none" stroke-width="1" fill="none" fill-rule="evenodd" sketch:type="MSPage">
        <g id="slice" sketch:type="MSArtboardGroup" transform="translate(-42.000000, -606.000000)" fill="#FFFFFF">
            <path d="M59.904,624.272 C57.308,629.42 53.128,634.48 48.728,637.692 C49.256,638.044 50.136,638.748 50.488,639.144 C52.336,637.648 54.184,635.844 55.9,633.864 L55.9,652.212 L58.012,652.212 L58.012,631.18 C59.464,629.2 60.828,627.088 61.928,624.888 L59.904,624.272 Z M74.16,618.904 L74.16,623.304 L76.272,623.304 L76.272,618.904 L87.14,618.904 L87.14,616.88 L76.272,616.88 L76.272,612.348 L74.16,612.348 L74.16,616.88 L61.972,616.88 L61.972,612.348 L59.86,612.348 L59.86,616.88 L48.816,616.88 L48.816,618.904 L59.86,618.904 L59.86,622.952 L61.972,622.952 L61.972,618.904 L74.16,618.904 Z M74.072,649.484 C71.696,649.484 71.212,649.044 71.212,647.328 L71.212,638 C76.536,635.36 81.684,632.544 85.292,629.772 L83.664,628.144 C80.672,630.652 76.096,633.336 71.212,635.888 L71.212,624.096 L69.1,624.096 L69.1,636.944 C66.856,638.044 64.568,639.1 62.368,640.024 C62.676,640.508 63.116,641.168 63.204,641.696 C65.184,640.816 67.164,639.936 69.1,639.012 L69.1,647.284 C69.1,650.716 70.2,651.552 74.028,651.552 L83.048,651.552 C86.832,651.552 87.448,649.748 87.8,643.456 C87.184,643.28 86.348,642.928 85.82,642.488 C85.556,648.296 85.204,649.484 83.004,649.484 L74.072,649.484 Z M118.644,618.42 L118.644,620.268 L131.448,620.268 L131.448,618.42 L126.916,618.42 C126.344,616.792 125.244,614.416 124.276,612.612 L122.516,613.096 C123.352,614.724 124.32,616.792 124.892,618.42 L118.644,618.42 Z M123.484,628.892 C123.352,626.824 122.604,623.788 121.724,621.412 L120.096,621.764 C120.932,624.14 121.592,627.264 121.724,629.288 L123.484,628.892 Z M104.784,618.42 L100.164,618.42 C99.548,616.836 98.448,614.548 97.436,612.832 L95.72,613.36 C96.512,614.9 97.48,616.836 98.096,618.42 L92.464,618.42 L92.464,620.268 L104.784,620.268 L104.784,618.42 Z M97.084,628.716 C96.996,626.736 96.38,623.832 95.544,621.544 L93.916,621.94 C94.664,624.184 95.236,627.176 95.324,629.068 L97.084,628.716 Z M104.476,639.628 L104.476,637.736 L99.768,637.736 L99.768,637.692 L99.768,631.708 L105.092,631.708 L105.092,629.816 L101.308,629.816 C102.1,627.484 102.936,624.404 103.596,621.852 L101.748,621.324 C101.308,623.788 100.428,627.352 99.636,629.816 L92.112,629.816 L92.112,631.708 L97.832,631.708 L97.832,637.692 L97.832,637.736 L92.596,637.736 L92.596,639.628 L97.788,639.628 C97.612,643.324 96.732,647.9 92.86,650.892 C93.3,651.288 93.916,651.904 94.224,652.344 C98.492,648.824 99.504,643.72 99.724,639.628 L104.476,639.628 Z M116.972,612.832 C114.596,613.976 110.196,615.208 106.412,615.912 L106.368,615.912 L106.368,624.8 C106.368,632.148 106.06,642.928 102.716,650.98 C103.068,651.156 103.86,651.64 104.168,651.992 C107.6,643.72 108.128,632.368 108.128,624.8 L108.128,617.232 C109.008,617.056 109.844,616.88 110.724,616.66 L110.724,627.132 C110.724,634.172 110.724,642.708 106.764,649.264 C107.116,649.572 107.776,650.232 107.996,650.628 C108.568,650.232 109.448,649.88 115.036,648.428 C115.256,649.528 115.432,650.584 115.52,651.464 L117.016,651.2 C116.664,648.164 115.696,643.588 114.728,640.068 L113.32,640.332 C113.804,642.268 114.288,644.512 114.728,646.668 L109.536,647.856 C112.396,641.212 112.44,633.38 112.44,627.132 L112.44,616.22 C113.32,616 114.156,615.824 114.992,615.56 C115.344,631.092 116.004,645.04 119.392,652.212 C119.744,651.772 120.404,651.156 120.844,650.848 C117.588,644.336 116.84,630.168 116.532,615.076 C117.324,614.812 118.028,614.548 118.688,614.24 L116.972,612.832 Z M132.02,631.752 L132.02,629.86 L128.104,629.86 C128.94,627.484 129.776,624.272 130.524,621.588 L128.676,621.06 C128.192,623.612 127.18,627.396 126.344,629.86 L118.468,629.86 L118.468,631.752 L124.056,631.752 L124.056,638.44 L119.26,638.44 L119.26,640.332 L124.056,640.332 L124.056,652.168 L126.036,652.168 L126.036,640.332 L131.58,640.332 L131.58,638.44 L126.036,638.44 L126.036,631.752 L132.02,631.752 Z M139.984,652.916 C144.12,651.288 146.936,647.944 146.936,643.324 C146.936,640.596 145.836,638.836 143.768,638.836 C142.316,638.836 141.04,639.716 141.04,641.52 C141.04,643.368 142.184,644.204 143.768,644.204 C144.076,644.204 144.384,644.16 144.692,644.072 C144.516,647.548 142.624,649.704 139.236,651.288 L139.984,652.916 Z M218.568,617.936 L208.404,617.936 C207.964,616.264 207.084,613.888 206.204,612.04 L204.268,612.436 C205.06,614.108 205.808,616.22 206.292,617.936 L195.248,617.936 L195.248,619.916 L218.568,619.916 L218.568,617.936 Z M202.64,628.804 C202.332,626.604 201.364,623.172 200.176,620.664 L198.284,621.06 C199.384,623.656 200.396,627.044 200.66,629.244 L202.64,628.804 Z M192.432,614.152 L192.08,614.24 L181.784,614.24 L181.784,652.256 L183.764,652.256 L183.764,616.22 L191.156,616.22 C190.1,619.256 188.56,623.172 186.976,626.648 C190.54,630.388 191.508,633.468 191.508,636.064 C191.508,637.428 191.244,638.836 190.452,639.364 C190.1,639.628 189.572,639.76 189,639.804 C188.164,639.892 187.196,639.848 186.008,639.76 C186.404,640.332 186.624,641.168 186.668,641.74 C187.636,641.828 188.78,641.784 189.704,641.696 C190.54,641.608 191.332,641.388 191.86,640.948 C193.004,640.2 193.488,638.264 193.488,636.196 C193.488,633.38 192.608,630.124 189.132,626.428 C190.716,622.864 192.476,618.596 193.84,615.032 L192.432,614.152 Z M214.3,638.088 L214.3,648.076 L199.032,648.076 L199.032,638.088 L214.3,638.088 Z M196.964,652.3 L199.032,652.3 L199.032,650.056 L214.3,650.056 L214.3,652.124 L216.368,652.124 L216.368,636.152 L196.964,636.152 L196.964,652.3 Z M212.012,629.904 C213.288,627.44 214.696,624.008 215.796,621.28 L213.596,620.664 C212.76,623.392 211.264,627.308 209.9,629.904 L194.104,629.904 L194.104,631.884 L219.8,631.884 L219.8,629.904 L212.012,629.904 Z M234.408,612.524 C231.768,619.432 227.5,626.252 222.968,630.652 C223.364,631.048 224.068,632.104 224.244,632.544 C226.136,630.652 227.94,628.452 229.612,625.944 L229.612,652.168 L231.636,652.168 L231.636,622.776 C233.44,619.74 235.068,616.44 236.388,613.096 L234.408,612.524 Z M242.416,630.652 C241.052,636.108 238.808,641.52 235.948,645.04 C236.476,645.348 237.4,645.92 237.796,646.228 C240.568,642.488 242.988,636.944 244.484,631.048 L242.416,630.652 Z M261.336,623.172 C260.984,625.592 260.456,628.232 260.06,629.948 L261.864,630.3 C262.436,628.144 263.228,624.492 263.8,621.5 L262.436,621.06 L261.996,621.148 L242.548,621.148 C243.472,618.552 244.308,615.78 244.924,613.008 L242.856,612.568 C241.404,619.212 238.984,625.724 235.728,629.992 C236.256,630.3 237.136,631.004 237.488,631.268 C239.072,629.024 240.568,626.296 241.8,623.172 L249.5,623.172 L249.5,649.352 C249.5,649.924 249.324,650.1 248.752,650.1 C248.18,650.144 246.244,650.188 244.044,650.1 C244.352,650.76 244.66,651.64 244.792,652.256 C247.52,652.256 249.236,652.212 250.248,651.86 C251.216,651.464 251.568,650.804 251.568,649.352 L251.568,623.172 L261.336,623.172 Z M255.748,631.004 C258.3,635.668 260.72,642.004 261.468,646.052 L263.492,645.392 C262.7,641.3 260.28,635.14 257.596,630.388 L255.748,631.004 Z M276.868,612.656 C274.624,619.608 271.016,626.516 267.012,631.048 C267.408,631.488 268.024,632.544 268.288,632.984 C270.048,630.916 271.764,628.408 273.304,625.68 L273.304,652.256 L275.328,652.256 L275.328,621.852 C276.648,619.08 277.88,616.132 278.848,613.184 L276.868,612.656 Z M289.848,634.216 L289.848,645.436 L281.224,645.436 L281.224,634.216 L289.848,634.216 Z M291.828,647.372 L291.828,632.28 L286.592,632.28 L286.592,623.216 L292.972,623.216 L292.972,621.236 L286.592,621.236 L286.592,612.832 L284.568,612.832 L284.568,621.236 L277.836,621.236 L277.836,623.216 L284.568,623.216 L284.568,632.28 L279.288,632.28 L279.288,650.144 L281.224,650.144 L281.224,647.372 L291.828,647.372 Z M296.448,623.04 L303.928,623.04 C303.18,629.552 301.948,635.052 299.836,639.54 C297.724,634.48 296.8,628.804 296.272,623.612 L296.448,623.04 Z M307.932,623.04 L307.932,621.104 L296.976,621.104 C297.636,618.42 298.252,615.604 298.736,612.656 L296.8,612.348 C295.7,619.432 293.852,626.384 290.904,631.004 C291.388,631.268 292.224,632.016 292.532,632.368 C293.412,630.916 294.248,629.156 294.996,627.264 C295.612,632.016 296.712,637.12 298.736,641.696 C296.536,645.524 293.544,648.516 289.452,650.848 C289.892,651.2 290.64,652.036 290.904,652.388 C294.688,650.056 297.504,647.24 299.704,643.764 C301.508,647.108 303.928,650.1 307.184,652.344 C307.492,651.772 308.152,651.024 308.592,650.628 C305.16,648.472 302.696,645.348 300.892,641.784 C303.488,636.812 304.984,630.652 305.908,623.04 L307.932,623.04 Z M333.144,648.648 L333.144,636.108 L347.972,636.108 L347.972,634.04 L333.144,634.04 L333.144,623.26 L349.512,623.26 L349.512,621.236 L333.144,621.236 L333.144,612.348 L330.988,612.348 L330.988,621.236 L320.78,621.236 C321.792,618.816 322.716,616.264 323.464,613.668 L321.308,613.228 C319.548,619.608 316.732,625.724 313.036,629.728 C313.564,630.036 314.532,630.652 314.928,630.96 C316.776,628.848 318.404,626.252 319.856,623.26 L330.988,623.26 L330.988,634.04 L317.216,634.04 L317.216,636.108 L330.988,636.108 L330.988,648.648 L312.64,648.648 L312.64,650.716 L351.492,650.716 L351.492,648.648 L333.144,648.648 Z M365.308,629.464 C363.504,628.232 359.896,626.252 357.256,624.888 L356.112,626.384 C358.796,627.836 362.316,629.948 364.12,631.18 L365.308,629.464 Z M359.148,651.596 C361.656,647.636 364.912,641.828 367.244,637.208 L365.704,635.844 C363.24,640.772 359.72,646.8 357.3,650.188 L359.148,651.596 Z M358.224,614.372 C361.04,615.824 364.692,617.98 366.584,619.3 L367.816,617.584 C365.88,616.264 362.184,614.24 359.412,612.92 L358.224,614.372 Z M390.432,648.296 L373.228,648.296 L373.228,637.56 L390.432,637.56 L390.432,648.296 Z M395.712,627.308 L395.712,625.284 L383.084,625.284 L383.084,616.616 C387.088,615.956 390.872,615.164 393.688,614.24 L391.972,612.612 C387.088,614.24 377.804,615.604 370.104,616.44 C370.324,616.924 370.588,617.716 370.72,618.2 C374.064,617.848 377.584,617.496 381.06,616.968 L381.06,625.284 L367.86,625.284 L367.86,627.308 L381.06,627.308 L381.06,635.58 L371.248,635.58 L371.248,652.212 L373.228,652.212 L373.228,650.276 L390.432,650.276 L390.432,651.948 L392.456,651.948 L392.456,635.58 L383.084,635.58 L383.084,627.308 L395.712,627.308 Z M414.72,631.84 L404.204,631.84 L404.204,621.324 L414.72,621.324 L414.72,631.84 Z M404.204,645.568 L404.204,633.776 L414.72,633.776 L414.72,645.568 L404.204,645.568 Z M409.22,612.216 C408.78,614.284 407.856,617.32 407.108,619.388 L402.224,619.388 L402.224,651.156 L404.204,651.156 L404.204,647.548 L416.744,647.548 L416.744,619.388 L409.088,619.388 C409.836,617.496 410.716,614.944 411.464,612.744 L409.22,612.216 Z M438.348,619.388 L424.664,619.388 C425.456,617.188 426.116,614.856 426.644,612.524 L424.576,612.04 C423.212,618.288 420.924,624.404 417.844,628.408 C418.372,628.716 419.296,629.244 419.648,629.552 C421.232,627.308 422.684,624.492 423.96,621.368 L436.28,621.368 C435.62,640.156 434.872,646.976 433.42,648.56 C432.98,649.132 432.452,649.22 431.572,649.22 C430.604,649.22 428.008,649.176 425.104,648.956 C425.5,649.528 425.72,650.364 425.808,651.024 C428.228,651.2 430.78,651.244 432.144,651.156 C433.508,651.068 434.388,650.76 435.224,649.792 C436.984,647.724 437.6,641.036 438.348,620.62 L438.348,619.388 Z M431.528,639.1 C430.12,636.46 426.952,632.192 424.356,629.024 L422.64,629.992 C425.28,633.16 428.36,637.56 429.768,640.244 L431.528,639.1 Z M466.2,616.044 L475.088,616.044 L475.088,624.536 C475.088,627.176 475.616,628.1 477.86,628.1 L481.468,628.1 C482.26,628.1 483.052,628.056 483.536,627.924 C483.448,627.44 483.36,626.56 483.316,626.032 C482.788,626.12 481.996,626.208 481.424,626.208 L477.904,626.208 C477.244,626.208 477.112,625.856 477.112,624.624 L477.112,614.064 L464.176,614.064 L464.176,618.948 C464.176,622.38 463.076,626.296 457.092,629.068 C457.488,629.42 458.192,630.256 458.456,630.696 C464.792,627.572 466.2,622.952 466.2,618.992 L466.2,616.044 Z M455.948,619.828 C454.584,618.024 451.768,615.252 449.392,613.316 L447.94,614.636 C450.272,616.66 453.132,619.52 454.452,621.368 L455.948,619.828 Z M452.956,646.448 L452.956,626.296 L444.2,626.296 L444.2,628.364 L450.932,628.364 L450.932,645.612 C450.932,647.548 449.436,648.868 448.732,649.396 C449.172,649.836 449.788,650.672 450.008,651.156 C450.624,650.408 451.636,649.704 459.248,644.556 C458.984,644.16 458.676,643.412 458.544,642.84 L452.956,646.448 Z M478.432,633.952 C476.716,638.044 473.944,641.476 470.6,644.116 C467.256,641.388 464.66,637.912 462.944,633.952 L478.432,633.952 Z M479.884,631.796 L479.488,631.928 L458.984,631.928 L458.984,633.952 L460.832,633.952 C462.68,638.44 465.364,642.268 468.928,645.392 C465.452,647.768 461.624,649.44 457.796,650.408 C458.192,650.892 458.72,651.728 458.896,652.256 C462.988,651.112 466.992,649.308 470.556,646.712 C473.988,649.352 478.08,651.244 482.656,652.388 C482.92,651.816 483.536,650.936 484.02,650.452 C479.532,649.484 475.572,647.768 472.228,645.392 C476.144,642.136 479.4,637.868 481.204,632.5 L479.884,631.796 Z M500.872,619.916 C499.464,618.112 496.516,615.34 494.096,613.316 L492.644,614.636 C495.064,616.704 498.012,619.696 499.42,621.544 L500.872,619.916 Z M497.704,646.052 L497.704,626.296 L488.288,626.296 L488.288,628.364 L495.592,628.364 L495.592,645.656 C495.592,647.46 494.316,648.648 493.612,649.044 C494.052,649.528 494.624,650.452 494.844,650.98 C495.46,650.188 496.516,649.396 504.436,643.896 C504.216,643.5 503.82,642.62 503.644,642.092 L497.704,646.052 Z M527.932,627.352 L516.14,627.352 L516.14,612.436 L513.984,612.436 L513.984,627.352 L502.5,627.352 L502.5,629.464 L513.984,629.464 L513.984,652.168 L516.14,652.168 L516.14,629.464 L527.932,629.464 L527.932,627.352 Z M536.732,617.408 L534.796,617.408 L534.796,638.572 L536.732,638.572 L536.732,617.408 Z M541.66,629.992 C541.66,638 540.912,645.26 534.884,650.848 C535.412,651.068 536.072,651.728 536.424,652.212 C542.848,646.316 543.684,638.616 543.684,629.992 L543.684,612.348 L541.66,612.348 L541.66,629.992 Z M571.448,616.792 L571.448,614.812 L546.94,614.812 L546.94,616.792 L557.764,616.792 L557.764,623.084 L548.744,623.084 L548.744,645.964 L550.724,645.964 L550.724,625.064 L557.764,625.064 L557.764,652.168 L559.788,652.168 L559.788,625.064 L567.4,625.064 L567.4,642.972 C567.4,643.412 567.268,643.588 566.74,643.588 C566.212,643.632 564.628,643.632 562.648,643.588 C562.956,644.16 563.308,644.952 563.396,645.48 C565.904,645.48 567.356,645.48 568.28,645.128 C569.16,644.776 569.424,644.16 569.424,642.972 L569.424,623.084 L559.788,623.084 L559.788,616.792 L571.448,616.792 Z" id="花瓣，陪你做生活的设计师" sketch:type="MSShapeGroup"></path>
        </g>
    </g>
</svg>