<?xml version="1.0" encoding="UTF-8" standalone="no"?>
<svg width="440px" height="40px" viewBox="0 0 440 40" version="1.1" xmlns="http://www.w3.org/2000/svg" xmlns:xlink="http://www.w3.org/1999/xlink">
    <!-- Generator: Sketch 3.8.1 (29687) - http://www.bohemiancoding.com/sketch -->
    <title>em-home-bigorder</title>
    <desc>Created with Sketch.</desc>
    <defs></defs>
    <g id="新首页" stroke="none" stroke-width="1" fill="none" fill-rule="evenodd">
        <g transform="translate(-500.000000, -1025.000000)" id="whyChooseUS-Copy" fill="#FFFFFF">
            <g transform="translate(0.000000, 620.000000)">
                <g id="Group-12" transform="translate(0.000000, 340.000000)">
                    <g id="Group-19" transform="translate(500.000000, 65.000000)">
                        <path d="M99.4,6.67 C95.86,10.69 91.42,14.08 86.08,16.78 L86.92,18.34 C92.35,15.46 96.7,12.04 100,8.14 C103.57,12.31 107.89,15.7 112.96,18.31 L113.83,16.75 C108.82,14.29 104.41,10.93 100.6,6.67 L99.4,6.67 Z M100.06,14.5 L100.06,31.06 L93.7,31.06 L93.7,18.82 L92.11,18.82 L92.11,31.06 L87.4,31.06 L87.4,32.65 L112.24,32.65 L112.24,31.06 L101.65,31.06 L101.65,23.08 L110.08,23.08 L110.08,21.49 L101.65,21.49 L101.65,14.5 L100.06,14.5 Z M130.95,6.91 L130.95,30.94 L121.8,30.94 L121.8,32.53 L148.2,32.53 L148.2,30.94 L138.99,30.94 L138.99,6.91 L137.4,6.91 L137.4,30.94 L132.54,30.94 L132.54,6.91 L130.95,6.91 Z M145.83,12.28 C144.51,17.8 142.95,22.36 141.18,25.96 L142.65,26.5 C144.54,22.54 146.07,17.95 147.27,12.67 L145.83,12.28 Z M124.02,12.19 L122.61,12.67 C124.29,17.17 125.7,21.85 126.78,26.68 L128.28,26.32 C127.02,21.01 125.61,16.3 124.02,12.19 L124.02,12.19 Z M170.81,16.09 C174.35,17.29 177.8,18.91 181.16,20.89 L182.06,19.51 C178.67,17.71 174.92,16.18 170.81,14.92 L170.81,14.23 L182.57,14.23 L182.57,12.7 L170.81,12.7 L170.81,6.52 L169.19,6.52 L169.19,12.7 L157.43,12.7 L157.43,14.23 L167.39,14.23 C165.71,16.36 162.38,18.25 157.46,19.9 L158.33,21.31 C163.49,19.36 167,16.99 168.86,14.23 L169.19,14.23 L169.19,19.93 L170.81,19.93 L170.81,16.09 Z M169.52,26.02 C172.34,29.74 176.63,32.35 182.42,33.88 L183.26,32.47 C177.89,31.18 173.78,28.87 170.9,25.51 L182.81,25.51 L182.81,23.98 L170.27,23.98 C170.54,23.05 170.75,22.03 170.9,20.89 L169.28,20.89 C169.13,21.97 168.89,23.02 168.59,23.98 L157.19,23.98 L157.19,25.51 L167.93,25.51 C167.39,26.59 166.73,27.52 165.89,28.36 C164.03,30.07 161,31.39 156.83,32.35 L157.49,33.85 C161.93,32.8 165.17,31.33 167.18,29.41 C168.11,28.45 168.89,27.34 169.52,26.02 L169.52,26.02 Z M162.5,7 L161.09,7.45 C162.05,8.74 162.83,10.09 163.46,11.5 L164.87,11.14 C164.15,9.58 163.37,8.2 162.5,7 L162.5,7 Z M177.41,6.91 C176.69,8.59 175.88,10 174.95,11.08 L176.33,11.56 C177.35,10.33 178.19,8.92 178.85,7.3 L177.41,6.91 Z M194.62,7.24 L193.51,8.32 C195.49,9.91 197.08,11.41 198.25,12.85 L199.39,11.71 C198.1,10.21 196.51,8.74 194.62,7.24 L194.62,7.24 Z M191.41,15.97 L191.41,17.56 L195.76,17.56 L195.76,30.16 C195.76,30.58 195.55,30.94 195.19,31.3 L195.82,32.77 C197.89,31.39 199.84,29.86 201.64,28.15 L201.22,26.41 C199.84,27.73 198.55,28.87 197.38,29.77 L197.38,15.97 L191.41,15.97 Z M202.06,19.45 L202.06,21.01 L203.65,21.01 C204.52,23.8 206.2,26.29 208.66,28.45 C206.38,30.13 203.5,31.51 200.05,32.59 L200.95,33.94 C204.52,32.86 207.52,31.39 209.95,29.53 C212.11,31.18 214.81,32.65 218.08,33.94 L218.95,32.56 C215.83,31.42 213.22,30.07 211.12,28.54 C213.46,26.47 215.11,23.95 216.13,20.95 L216.13,19.45 L202.06,19.45 Z M205.24,21.01 L214.51,21.01 C213.52,23.5 211.96,25.66 209.83,27.52 C207.61,25.63 206.08,23.47 205.24,21.01 L205.24,21.01 Z M204.52,7.87 L204.52,10.78 C204.52,13.39 203.17,15.4 200.5,16.84 L201.61,18.07 C204.61,16.33 206.14,13.84 206.14,10.63 L206.14,9.4 L212.56,9.4 L212.56,14.8 C212.56,16.39 213.37,17.2 215.05,17.2 L218.23,17.2 L218.23,15.7 L215.38,15.7 C214.57,15.7 214.18,15.31 214.18,14.53 L214.18,7.87 L204.52,7.87 Z M235.83,15.76 L235.83,17.38 L244.14,17.38 L244.14,34 L245.82,34 L245.82,17.38 L253.74,17.38 L253.74,15.76 L245.82,15.76 L245.82,6.52 L244.14,6.52 L244.14,15.76 L235.83,15.76 Z M229.62,6.88 L228.45,7.99 C230.67,9.67 232.44,11.29 233.76,12.79 L234.87,11.65 C233.43,10.06 231.69,8.47 229.62,6.88 L229.62,6.88 Z M226.41,15.91 L226.41,17.5 L231,17.5 L231,30.16 C231,30.52 230.79,30.88 230.43,31.24 L231.06,32.68 C233.16,31.3 235.11,29.71 236.91,27.94 L236.49,26.26 C235.08,27.61 233.79,28.75 232.59,29.71 L232.59,15.91 L226.41,15.91 Z M261.74,20.95 L261.74,22.39 L273.77,22.39 L272.63,24.88 L264.29,24.88 L264.29,34 L265.88,34 L265.88,26.29 L270.92,26.29 L270.92,33.7 L272.48,33.7 L272.48,26.29 L277.52,26.29 L277.52,33.7 L279.08,33.7 L279.08,26.29 L284.48,26.29 L284.48,31.09 C284.48,32.05 284.03,32.56 283.13,32.56 L281.06,32.5 L281.48,33.94 L283.61,33.94 C285.23,33.94 286.04,33.1 286.04,31.42 L286.04,24.88 L274.22,24.88 L275.42,22.39 L288.26,22.39 L288.26,20.95 L261.74,20.95 Z M263.57,7.66 L263.57,9.04 L274.19,9.04 L274.19,11.35 L262.61,11.35 L262.61,17.26 L264.17,17.26 L264.17,12.64 L274.19,12.64 L274.19,19.51 L275.81,19.51 L275.81,12.64 L285.83,12.64 L285.83,17.26 L287.39,17.26 L287.39,11.35 L275.81,11.35 L275.81,9.04 L286.46,9.04 L286.46,7.66 L263.57,7.66 Z M266.12,14.68 L266.12,15.82 L272.36,15.82 L272.36,14.68 L266.12,14.68 Z M266.12,17.68 L266.12,18.82 L272.36,18.82 L272.36,17.68 L266.12,17.68 Z M277.61,14.68 L277.61,15.82 L283.82,15.82 L283.82,14.68 L277.61,14.68 Z M277.64,17.68 L277.64,18.82 L283.91,18.82 L283.91,17.68 L277.64,17.68 Z M297.22,12.25 L297.22,13.84 L309.4,13.84 L309.4,19.57 C305.8,24.19 301.66,27.79 296.98,30.4 L297.85,31.87 C302.32,29.14 306.16,25.72 309.4,21.61 L309.4,30.76 C309.4,31.78 308.92,32.29 307.99,32.29 C306.79,32.29 305.53,32.23 304.21,32.17 L304.57,33.73 L308.56,33.73 C310.18,33.73 311.02,32.86 311.02,31.18 L311.02,18.37 C313.51,23.59 317.35,27.97 322.51,31.48 L323.62,30.19 C320.23,27.97 317.38,25.42 315.1,22.48 C317.47,20.83 319.51,18.91 321.22,16.75 L319.99,15.64 C318.43,17.8 316.51,19.69 314.23,21.34 C312.94,19.54 311.86,17.59 311.02,15.55 L311.02,13.84 L322.72,13.84 L322.72,12.25 L311.02,12.25 L311.02,6.46 L309.4,6.46 L309.4,12.25 L297.22,12.25 Z M299.8,16.24 L298.66,17.35 C300.88,19.3 302.62,21.16 303.94,22.93 L305.05,21.82 C303.64,19.96 301.9,18.1 299.8,16.24 L299.8,16.24 Z M314.89,6.7 L313.81,7.69 C315.73,9.19 317.29,10.63 318.43,12.01 L319.54,10.87 C318.28,9.49 316.75,8.08 314.89,6.7 L314.89,6.7 Z M332.74,9.16 C330.64,9.16 328.99,9.82 327.79,11.2 C326.71,12.46 326.14,14.08 326.14,16.12 L327.94,16.12 C327.94,14.56 328.3,13.3 329.02,12.4 C329.83,11.32 331.03,10.78 332.65,10.78 C334.06,10.78 335.17,11.14 335.95,11.92 C336.67,12.67 337.06,13.69 337.06,14.98 C337.06,15.88 336.73,16.72 336.1,17.53 C335.86,17.83 335.38,18.31 334.72,18.97 C333.28,20.23 332.38,21.34 331.96,22.24 C331.6,22.96 331.42,23.77 331.42,24.64 L331.42,25.51 L333.25,25.51 L333.25,24.64 C333.25,23.8 333.46,23.05 333.88,22.33 C334.18,21.82 334.66,21.25 335.38,20.62 C336.64,19.48 337.42,18.73 337.75,18.31 C338.5,17.32 338.89,16.18 338.89,14.92 C338.89,13.18 338.35,11.8 337.27,10.78 C336.13,9.7 334.63,9.16 332.74,9.16 L332.74,9.16 Z M332.35,28 C331.93,28 331.54,28.12 331.24,28.42 C330.94,28.69 330.82,29.05 330.82,29.5 C330.82,29.92 330.94,30.25 331.24,30.55 C331.54,30.85 331.93,31 332.35,31 C332.77,31 333.13,30.85 333.43,30.58 C333.73,30.28 333.88,29.92 333.88,29.5 C333.88,29.05 333.73,28.69 333.43,28.42 C333.13,28.12 332.77,28 332.35,28 L332.35,28 Z" id="企业类设计需求？"></path>
                    </g>
                </g>
            </g>
        </g>
    </g>
</svg>